<?xml version="1.0" encoding="iso-8859-1"?>
<!-- Generator: Adobe Illustrator 19.2.1, SVG Export Plug-In . SVG Version: 6.00 Build 0)  -->
<svg version="1.1" id="Layer_1" xmlns="http://www.w3.org/2000/svg" xmlns:xlink="http://www.w3.org/1999/xlink" x="0px" y="0px"
	 viewBox="0 0 200 200" style="enable-background:new 0 0 200 200;" xml:space="preserve">
<style type="text/css">
	.st0{fill:none;stroke:#769AA8;stroke-width:2;stroke-miterlimit:10;}
	.st1{fill:none;stroke:#46B4DB;stroke-width:2;stroke-miterlimit:10;}
	.st2{fill:#46B4DB;}
	.st3{fill:#46B5D7;}
</style>
<g id="live_x60_27x39">
	<path class="st0" d="M4.211,18.848C-0.07,23.129-0.071,30.069,4.21,34.35c4.281,4.281,11.223,4.281,15.504,0
		c4.28-4.281,4.281-11.222,0-15.503L1.573,0.707"/>
	<path class="st0" d="M7.251,21.888c-2.602,2.601-2.602,6.819,0,9.421c2.602,2.602,6.82,2.602,9.422,0
		c2.601-2.602,2.601-6.82,0-9.422L1.007,6.221"/>
	<path class="st0" d="M10.329,24.966c-0.902,0.902-0.902,2.364,0,3.266c0.902,0.902,2.363,0.902,3.266,0
		c0.902-0.902,0.902-2.364,0-3.266L1.502,12.873"/>
	<path class="st0" d="M13.809,9.249"/>
	<path class="st0" d="M16.85,12.29"/>
	<path class="st0" d="M19.928,15.367"/>
	<line class="st0" x1="13.809" y1="9.249" x2="18.849" y2="4.209"/>
	<line class="st0" x1="16.85" y1="12.29" x2="25.829" y2="3.309"/>
	<line class="st0" x1="23.184" y1="12.111" x2="19.928" y2="15.367"/>
</g>
<g id="deploy_x60_37x24">
	<line class="st0" x1="0" y1="1" x2="28.949" y2="1"/>
	<line class="st0" x1="0" y1="5.385" x2="36.953" y2="5.385"/>
	<line class="st0" x1="0" y1="9.769" x2="20.85" y2="9.769"/>
	<line class="st0" x1="0" y1="14.154" x2="28.949" y2="14.154"/>
	<line class="st0" x1="0" y1="18.539" x2="35.158" y2="18.539"/>
	<line class="st0" x1="0" y1="22.924" x2="21.855" y2="22.924"/>
</g>
<g id="historical_x60_45x33">
	<rect x="12.96" y="13.427" class="st0" width="30.342" height="17.579"/>
	<polyline class="st0" points="8.853,26.768 8.853,9.189 39.195,9.189 	"/>
	<polyline class="st0" points="4.688,22.51 4.688,4.931 35.03,4.931 	"/>
	<polyline class="st0" points="1,18.579 1,1 31.342,1 	"/>
	<line class="st0" x1="17.185" y1="18.145" x2="38.309" y2="18.145"/>
	<line class="st0" x1="17.185" y1="22.322" x2="38.309" y2="22.322"/>
	<line class="st0" x1="17.185" y1="26.5" x2="38.309" y2="26.5"/>
</g>
<g id="log-eye_x60_22x10">
	<path class="st1" d="M21.088,6.066C18.764,2.995,15.09,1,10.942,1C6.795,1,3.121,2.995,0.798,6.066"/>
	<path class="st1" d="M4.835,8.253C3.255,7.382,1.88,6.185,0.798,4.754"/>
	<path class="st1" d="M21.088,4.754c-1.161,1.535-2.661,2.802-4.389,3.685"/>
	<path class="st1" d="M15.735,2.335c0,2.648-2.146,4.794-4.793,4.794S6.149,4.982,6.149,2.335"/>
	<circle class="st2" cx="10.943" cy="2.853" r="1.863"/>
</g>
<g id="log-x_x60_12x12">
	<path class="st2" d="M11.436,9.54c0.127,0.136,0.221,0.284,0.281,0.444c0.061,0.159,0.09,0.325,0.09,0.498
		c0,0.172-0.029,0.34-0.09,0.504s-0.154,0.313-0.281,0.45c-0.137,0.119-0.289,0.214-0.457,0.281
		c-0.168,0.068-0.336,0.103-0.504,0.103c-0.343,0-0.656-0.128-0.935-0.384L5.903,7.812l-3.636,3.624
		c-0.112,0.119-0.252,0.214-0.42,0.281C1.68,11.786,1.504,11.82,1.319,11.82c-0.16,0-0.323-0.034-0.491-0.103
		C0.66,11.65,0.52,11.555,0.407,11.436c-0.136-0.137-0.237-0.286-0.306-0.45S0,10.654,0,10.482c0-0.173,0.033-0.339,0.102-0.498
		c0.068-0.16,0.17-0.309,0.306-0.444l3.589-3.636L0.407,2.268C0.271,2.148,0.17,2.006,0.102,1.842S0,1.512,0,1.344
		S0.033,1.01,0.102,0.846c0.068-0.164,0.17-0.31,0.306-0.438C0.535,0.272,0.682,0.17,0.846,0.102C1.01,0.034,1.176,0,1.344,0
		s0.334,0.034,0.498,0.102c0.164,0.068,0.306,0.17,0.426,0.306l3.636,3.588L9.54,0.408C9.668,0.272,9.813,0.17,9.978,0.102
		C10.142,0.034,10.309,0,10.481,0s0.34,0.034,0.504,0.102c0.164,0.068,0.314,0.17,0.451,0.306c0.127,0.128,0.221,0.274,0.281,0.438
		c0.061,0.164,0.09,0.33,0.09,0.498s-0.029,0.334-0.09,0.498s-0.154,0.306-0.281,0.426L7.812,5.904L11.436,9.54z"/>
</g>
<g id="log-magnify_x60_16x16">
	<path class="st3" d="M10.352,0c0.736,0,1.432,0.142,2.088,0.424c0.656,0.283,1.229,0.669,1.72,1.16
		c0.491,0.491,0.88,1.064,1.168,1.72c0.288,0.656,0.432,1.357,0.432,2.104c0,0.757-0.144,1.464-0.432,2.12
		c-0.288,0.655-0.678,1.229-1.168,1.72s-1.064,0.875-1.72,1.152c-0.656,0.277-1.352,0.416-2.088,0.416
		c-0.534,0-1.038-0.067-1.512-0.2c-0.475-0.134-0.915-0.322-1.32-0.568l-5.616,5.616L0,13.776l5.648-5.633
		C5.435,7.728,5.264,7.296,5.136,6.848C5.008,6.4,4.944,5.92,4.944,5.408c0-0.747,0.142-1.448,0.424-2.104
		c0.282-0.656,0.669-1.229,1.16-1.72c0.491-0.49,1.064-0.877,1.72-1.16C8.904,0.142,9.605,0,10.352,0z M10.352,8.192
		c0.384,0,0.744-0.075,1.08-0.225c0.336-0.149,0.629-0.349,0.88-0.6c0.25-0.25,0.448-0.544,0.592-0.88
		c0.144-0.336,0.216-0.696,0.216-1.08s-0.072-0.741-0.216-1.072c-0.144-0.331-0.341-0.622-0.592-0.872
		c-0.251-0.25-0.544-0.445-0.88-0.584s-0.696-0.208-1.08-0.208S9.608,2.742,9.272,2.88S8.64,3.214,8.384,3.464
		c-0.256,0.25-0.456,0.542-0.6,0.872S7.568,5.024,7.568,5.408s0.072,0.744,0.216,1.08s0.344,0.629,0.6,0.88
		c0.256,0.251,0.552,0.451,0.888,0.6C9.608,8.117,9.968,8.192,10.352,8.192z"/>
</g>
</svg>
