<?xml version="1.0" encoding="iso-8859-1"?>
<!-- Generator: Adobe Illustrator 19.2.1, SVG Export Plug-In . SVG Version: 6.00 Build 0)  -->
<svg version="1.1" id="svgs" xmlns="http://www.w3.org/2000/svg" xmlns:xlink="http://www.w3.org/1999/xlink" x="0px" y="0px"
	 viewBox="0 0 200 200" style="enable-background:new 0 0 200 200;" xml:space="preserve">
<style type="text/css">
	.st0{fill:none;stroke:#769AA8;stroke-width:2;stroke-miterlimit:10;}
	.st1{fill:none;stroke:#46B4DB;stroke-width:2;stroke-miterlimit:10;}
	.st2{fill:#46B4DB;}
	.st3{fill:#46B5D7;}
</style>
<g id="live">
	<path class="st0" d="M23.603,34.68c-4.28,4.281-4.281,11.222-0.001,15.502c4.281,4.281,11.223,4.281,15.504,0
		c4.28-4.281,4.281-11.222,0-15.503L20.965,16.54"/>
	<path class="st0" d="M26.643,37.721c-2.602,2.602-2.602,6.819,0,9.421c2.602,2.602,6.82,2.602,9.422,0
		c2.601-2.602,2.601-6.82,0-9.422L20.399,22.054"/>
	<path class="st0" d="M29.721,40.798c-0.902,0.902-0.902,2.364,0,3.266c0.902,0.902,2.363,0.902,3.266,0
		c0.902-0.902,0.902-2.364,0-3.266L20.894,28.706"/>
	<path class="st0" d="M33.201,25.082"/>
	<path class="st0" d="M36.242,28.122"/>
	<path class="st0" d="M39.319,31.2"/>
	<line class="st0" x1="33.201" y1="25.082" x2="38.241" y2="20.042"/>
	<line class="st0" x1="36.242" y1="28.122" x2="45.221" y2="19.142"/>
	<line class="st0" x1="42.576" y1="27.943" x2="39.319" y2="31.2"/>
</g>
<g id="deploy">
	<line class="st0" x1="145.17" y1="25.221" x2="174.119" y2="25.221"/>
	<line class="st0" x1="145.17" y1="29.606" x2="182.123" y2="29.606"/>
	<line class="st0" x1="145.17" y1="33.991" x2="166.02" y2="33.991"/>
	<line class="st0" x1="145.17" y1="38.375" x2="174.119" y2="38.375"/>
	<line class="st0" x1="145.17" y1="42.76" x2="180.328" y2="42.76"/>
	<line class="st0" x1="145.17" y1="47.145" x2="167.025" y2="47.145"/>
</g>
<g id="historical">
	<rect x="85.424" y="33.41" class="st0" width="30.342" height="17.579"/>
	<polyline class="st0" points="81.317,46.751 81.317,29.172 111.659,29.172 	"/>
	<polyline class="st0" points="77.152,42.493 77.152,24.914 107.494,24.914 	"/>
	<polyline class="st0" points="73.464,38.562 73.464,20.983 103.806,20.983 	"/>
	<line class="st0" x1="89.649" y1="38.128" x2="110.773" y2="38.128"/>
	<line class="st0" x1="89.649" y1="42.305" x2="110.773" y2="42.305"/>
	<line class="st0" x1="89.649" y1="46.483" x2="110.773" y2="46.483"/>
</g>
<g id="log-eye">
	<path class="st1" d="M42.353,81.251c-2.323-3.071-5.997-5.066-10.146-5.066c-4.148,0-7.821,1.995-10.145,5.066"/>
	<path class="st1" d="M26.1,83.438c-1.58-0.871-2.955-2.068-4.037-3.499"/>
	<path class="st1" d="M42.353,79.939c-1.161,1.535-2.661,2.802-4.389,3.685"/>
	<path class="st1" d="M37,77.519c0,2.647-2.146,4.794-4.793,4.794s-4.793-2.146-4.793-4.794"/>
	<circle class="st2" cx="32.208" cy="78.038" r="1.863"/>
</g>
<g id="log-x">
	<path class="st2" d="M78.146,83.528c0.127,0.136,0.221,0.284,0.281,0.444c0.061,0.159,0.09,0.325,0.09,0.498
		c0,0.172-0.029,0.34-0.09,0.504s-0.154,0.313-0.281,0.45c-0.137,0.119-0.289,0.214-0.457,0.281
		c-0.168,0.068-0.336,0.103-0.504,0.103c-0.343,0-0.656-0.128-0.935-0.384L72.614,81.8l-3.636,3.624
		c-0.112,0.119-0.252,0.214-0.42,0.281c-0.168,0.068-0.344,0.103-0.528,0.103c-0.16,0-0.323-0.034-0.491-0.103
		c-0.168-0.067-0.309-0.162-0.421-0.281c-0.136-0.137-0.237-0.286-0.306-0.45s-0.102-0.332-0.102-0.504
		c0-0.173,0.033-0.339,0.102-0.498c0.068-0.16,0.17-0.309,0.306-0.444l3.589-3.636l-3.589-3.636
		c-0.136-0.12-0.237-0.262-0.306-0.426s-0.102-0.33-0.102-0.498s0.033-0.334,0.102-0.498c0.068-0.164,0.17-0.31,0.306-0.438
		c0.128-0.136,0.274-0.238,0.438-0.306c0.164-0.068,0.33-0.102,0.498-0.102s0.334,0.034,0.498,0.102
		c0.164,0.068,0.306,0.17,0.426,0.306l3.636,3.588l3.637-3.588c0.128-0.136,0.273-0.238,0.438-0.306
		c0.164-0.068,0.332-0.102,0.503-0.102s0.34,0.034,0.504,0.102c0.164,0.068,0.314,0.17,0.451,0.306
		c0.127,0.128,0.221,0.274,0.281,0.438c0.061,0.164,0.09,0.33,0.09,0.498s-0.029,0.334-0.09,0.498s-0.154,0.306-0.281,0.426
		l-3.625,3.636L78.146,83.528z"/>
</g>
<g id="log-magnify">
	<path class="st3" d="M110.512,72.066c0.736,0,1.432,0.142,2.088,0.424c0.656,0.283,1.229,0.669,1.72,1.16
		c0.491,0.491,0.88,1.064,1.168,1.72c0.288,0.656,0.432,1.357,0.432,2.104c0,0.757-0.144,1.464-0.432,2.12
		c-0.288,0.655-0.678,1.229-1.168,1.72s-1.064,0.875-1.72,1.152c-0.656,0.277-1.352,0.416-2.088,0.416
		c-0.534,0-1.038-0.067-1.512-0.2c-0.475-0.134-0.915-0.322-1.32-0.568l-5.616,5.616l-1.904-1.888l5.648-5.633
		c-0.213-0.416-0.384-0.847-0.512-1.295c-0.128-0.448-0.192-0.928-0.192-1.44c0-0.747,0.142-1.448,0.424-2.104
		c0.282-0.656,0.669-1.229,1.16-1.72c0.491-0.49,1.064-0.877,1.72-1.16C109.064,72.208,109.766,72.066,110.512,72.066z
		 M110.512,80.258c0.384,0,0.744-0.075,1.08-0.225c0.336-0.149,0.629-0.349,0.88-0.6c0.25-0.25,0.448-0.544,0.592-0.88
		c0.144-0.336,0.216-0.696,0.216-1.08s-0.072-0.741-0.216-1.072c-0.144-0.331-0.341-0.622-0.592-0.872
		c-0.251-0.25-0.544-0.445-0.88-0.584s-0.696-0.208-1.08-0.208s-0.744,0.069-1.08,0.208s-0.632,0.333-0.888,0.584
		c-0.256,0.25-0.456,0.542-0.6,0.872s-0.216,0.688-0.216,1.072s0.072,0.744,0.216,1.08s0.344,0.629,0.6,0.88
		c0.256,0.251,0.552,0.451,0.888,0.6C109.768,80.183,110.128,80.258,110.512,80.258z"/>
</g>
</svg>
